# xmcd
#
# Track frame offsets:
#	150
#	17805
#	34720
#	51143
#	65622
#	82041
#	99879
#	112752
#	128299
#	144041
#	160665
#	176175
#
# Disc length: 2645 seconds
#
# Revision: 0
# Processed by: cddbd v1.5.1PL0 Copyright (c) Steve Scherf et al.
# Submitted via: dBpowerAMP V4.0
#
DISCID=8a0a530c
DTITLE=Dixie Chicks - Wide Open Spaces
DYEAR=1998
DGENRE=Country
TTITLE0=I Can Love You Better
TTITLE1=Wide Open Spaces
TTITLE2=Loving Arms
TTITLE3=There's Your Trouble
TTITLE4=You Were Mine
TTITLE5=Never Say Die
TTITLE6=Let 'Er Rip
TTITLE7=Tonight The Heartache's On Me
TTITLE8=Once You've Loved Somebody
TTITLE9=I'll Take Care of You
TTITLE10=Am I The Only One (Who's Ever Felt This Way)
TTITLE11=Give It Up Or Let Me Go
EXTD=
EXTT0=
EXTT1=
EXTT2=
EXTT3=
EXTT4=
EXTT5=
EXTT6=
EXTT7=
EXTT8=
EXTT9=
EXTT10=
EXTT11=
PLAYORDER=
